<svg width="32" height="32" viewBox="0 0 32 32" fill="none" xmlns="http://www.w3.org/2000/svg">
<path d="M16.0061 8.8125C12.0311 8.8125 8.8248 12.0187 8.8248 15.9937C8.8248 19.9687 12.0311 23.175 16.0061 23.175C19.9811 23.175 23.1873 19.9687 23.1873 15.9937C23.1873 12.0187 19.9811 8.8125 16.0061 8.8125ZM16.0061 20.6625C13.4373 20.6625 11.3373 18.5687 11.3373 15.9937C11.3373 13.4187 13.4311 11.325 16.0061 11.325C18.5811 11.325 20.6748 13.4187 20.6748 15.9937C20.6748 18.5687 18.5748 20.6625 16.0061 20.6625ZM25.1561 8.51875C25.1561 9.45 24.4061 10.1937 23.4811 10.1937C22.5498 10.1937 21.8061 9.44375 21.8061 8.51875C21.8061 7.59375 22.5561 6.84375 23.4811 6.84375C24.4061 6.84375 25.1561 7.59375 25.1561 8.51875ZM29.9123 10.2187C29.8061 7.975 29.2936 5.9875 27.6498 4.35C26.0123 2.7125 24.0248 2.2 21.7811 2.0875C19.4686 1.95625 12.5373 1.95625 10.2248 2.0875C7.9873 2.19375 5.9998 2.70625 4.35605 4.34375C2.7123 5.98125 2.20605 7.96875 2.09355 10.2125C1.9623 12.525 1.9623 19.4562 2.09355 21.7687C2.1998 24.0125 2.7123 26 4.35605 27.6375C5.9998 29.275 7.98105 29.7875 10.2248 29.9C12.5373 30.0312 19.4686 30.0312 21.7811 29.9C24.0248 29.7937 26.0123 29.2812 27.6498 27.6375C29.2873 26 29.7998 24.0125 29.9123 21.7687C30.0436 19.4562 30.0436 12.5312 29.9123 10.2187ZM26.9248 24.25C26.4373 25.475 25.4936 26.4187 24.2623 26.9125C22.4186 27.6437 18.0436 27.475 16.0061 27.475C13.9686 27.475 9.5873 27.6375 7.7498 26.9125C6.5248 26.425 5.58105 25.4812 5.0873 24.25C4.35605 22.4062 4.5248 18.0312 4.5248 15.9937C4.5248 13.9562 4.3623 9.575 5.0873 7.7375C5.5748 6.5125 6.51855 5.56875 7.7498 5.075C9.59355 4.34375 13.9686 4.5125 16.0061 4.5125C18.0436 4.5125 22.4248 4.35 24.2623 5.075C25.4873 5.5625 26.4311 6.50625 26.9248 7.7375C27.6561 9.58125 27.4873 13.9562 27.4873 15.9937C27.4873 18.0312 27.6561 22.4125 26.9248 24.25Z" fill="#F2F2F2"/>
</svg>
