<svg width="32" height="32" viewBox="0 0 32 32" fill="none" xmlns="http://www.w3.org/2000/svg">
<path d="M27.1218 10.4771C27.1396 10.7614 27.1396 11.0457 27.1396 11.3299C27.1396 19.9999 21.3655 29.9898 10.8122 29.9898C7.5609 29.9898 4.54062 28.9136 2 27.0457C2.46195 27.1066 2.90606 27.1269 3.38578 27.1269C6.06848 27.1269 8.53805 26.0914 10.5101 24.3249C7.9873 24.2639 5.87308 22.3756 5.14464 19.7766C5.5 19.8375 5.8553 19.8781 6.22844 19.8781C6.74365 19.8781 7.25891 19.7969 7.73858 19.6548C5.10915 19.0456 3.13701 16.4061 3.13701 13.2183V13.1371C3.90094 13.6244 4.78934 13.9289 5.73089 13.9695C4.1852 12.7918 3.17255 10.7817 3.17255 8.50756C3.17255 7.28931 3.45677 6.17256 3.95426 5.19794C6.77914 9.17762 11.0254 11.7766 15.7867 12.0609C15.6979 11.5736 15.6446 11.066 15.6446 10.5584C15.6446 6.94413 18.203 4 21.3832 4C23.0354 4 24.5278 4.79188 25.5761 6.07106C26.873 5.78681 28.1166 5.23856 29.2182 4.48731C28.7917 6.01019 27.8857 7.28938 26.6953 8.1015C27.8502 7.95944 28.9695 7.59387 29.9999 7.08631C29.2183 8.38575 28.2411 9.54306 27.1218 10.4771Z" fill="#F2F2F2"/>
</svg>
